<svg width="30" height="26" viewBox="0 0 30 26" fill="none" xmlns="http://www.w3.org/2000/svg">
<g clip-path="url(#clip0_39_19)">
<path d="M15 5.77778L9.16667 0H0L11.6667 12.2778L21.2675 8.84722L15 5.77778Z" fill="#55ACEE"/>
<path d="M20.8333 0L15 5.77778L19.4917 11.0587L20.5142 9.98328L30 0H20.8333Z" fill="#3B88C3"/>
<path d="M19.3374 11.5743C19.4041 11.4176 19.4466 11.2508 19.4466 11.0738C19.4466 10.6907 19.271 10.3233 18.9585 10.0525C18.6459 9.78157 18.222 9.62939 17.7799 9.62939H12.2241C11.7821 9.62939 11.3582 9.78157 11.0456 10.0525C10.733 10.3233 10.5574 10.6907 10.5574 11.0738C10.5574 11.2508 10.5991 11.4176 10.6666 11.5743C7.95161 12.8931 6.11328 15.4072 6.11328 18.2961C6.11245 22.5507 10.0924 26 15.0016 26C19.9108 26 23.8908 22.5507 23.8908 18.2961C23.8908 15.4072 22.0524 12.8931 19.3374 11.5743Z" fill="#FFAC33"/>
<path d="M16.1701 13.4333H14.7359L12.4609 14.9731C12.4078 15.0312 12.3753 15.1015 12.3676 15.1753V16.0261C12.3676 16.1604 12.4926 16.2818 12.6484 16.2818H14.1442V22.3586C14.1442 22.4943 14.2692 22.6149 14.4401 22.6149H16.1701C16.3251 22.6149 16.4501 22.4936 16.4501 22.3586V13.689C16.4501 13.5547 16.3259 13.4333 16.1701 13.4333Z" fill="#9E5200"/>
</g>
<defs>
<clipPath id="clip0_39_19">
<rect width="30" height="26" fill="white"/>
</clipPath>
</defs>
</svg>
