<svg width="30" height="24" viewBox="0 0 30 24" fill="none" xmlns="http://www.w3.org/2000/svg">
<g clip-path="url(#clip0_39_29)">
<path d="M15 5.33333L9.16667 0H0L11.6667 11.3333L21.2675 8.16667L15 5.33333Z" fill="#55ACEE"/>
<path d="M20.8333 0L15 5.33333L19.4917 10.208L20.5142 9.21533L30 0H20.8333Z" fill="#3B88C3"/>
<path d="M19.3374 10.684C19.4041 10.5393 19.4466 10.3853 19.4466 10.222C19.4466 9.86838 19.271 9.52924 18.9585 9.27919C18.6459 9.02914 18.222 8.88866 17.7799 8.88866H12.2241C11.7821 8.88866 11.3582 9.02914 11.0456 9.27919C10.733 9.52924 10.5574 9.86838 10.5574 10.222C10.5574 10.3853 10.5991 10.5393 10.6666 10.684C7.95161 11.9013 6.11328 14.222 6.11328 16.8887C6.11245 20.816 10.0924 24 15.0016 24C19.9108 24 23.8908 20.816 23.8908 16.8887C23.8908 14.222 22.0524 11.9013 19.3374 10.684Z" fill="#FF8A3B"/>
<path d="M12.0788 19.3033L13.0604 18.518C13.1094 18.4754 13.1767 18.4491 13.2488 18.4444C13.3209 18.4397 13.3926 18.4569 13.4496 18.4927C13.4496 18.4927 14.4154 19.0667 15.1629 19.0667C15.8338 19.0667 16.5196 18.618 16.5196 18.0693C16.5196 17.5207 15.8179 17.06 14.6654 17.06H14.1329C14.0554 17.0578 13.9818 17.0322 13.927 16.9882C13.8723 16.9443 13.8404 16.8854 13.8379 16.8233V15.7887C13.8379 15.6513 13.9779 15.552 14.1329 15.552H14.6654C15.7563 15.552 16.3321 15.1287 16.3321 14.5927C16.3321 14.056 15.7563 13.658 15.0854 13.658C14.3996 13.658 13.9638 13.9447 13.7304 14.156C13.6204 14.256 13.4346 14.256 13.3104 14.1693L12.3596 13.4213C12.2338 13.3333 12.2496 13.1847 12.3596 13.0973C12.3596 13.0973 13.6371 12 15.3346 12C17.1421 12 18.7004 12.8853 18.7004 14.2813C18.7004 15.2407 17.7963 15.9513 17.0954 16.2127V16.2507C17.8279 16.5 18.9804 17.2727 18.9804 18.3447C18.9804 19.7033 17.5004 20.726 15.3496 20.726C13.3879 20.726 12.3896 19.9527 12.0629 19.6167C11.9688 19.5273 11.9854 19.39 12.0788 19.3033Z" fill="#7C4119"/>
</g>
<defs>
<clipPath id="clip0_39_29">
<rect width="30" height="24" fill="white"/>
</clipPath>
</defs>
</svg>
