<svg width="30" height="30" viewBox="0 0 30 30" fill="none" xmlns="http://www.w3.org/2000/svg">
<path d="M2.64 2.55L0.210005 4.32L3.645 9C4.55623 8.52135 5.52374 8.15853 6.525 7.92L2.64 2.55ZM13.5 10.5V13.5H24V13.935L16.5 16.065V20.25C16.5 21.585 16.1041 22.8901 15.3624 24.0001C14.6207 25.1101 13.5665 25.9753 12.3331 26.4862C11.0997 26.9971 9.74252 27.1308 8.43315 26.8703C7.12377 26.6099 5.92104 25.967 4.97703 25.023C4.03303 24.079 3.39015 22.8762 3.1297 21.5669C2.86925 20.2575 3.00293 18.9003 3.51382 17.6669C4.02471 16.4335 4.88987 15.3793 5.99991 14.6376C7.10994 13.8959 8.41498 13.5 9.75 13.5H10.5V10.5H9.75C7.82164 10.5 5.93657 11.0718 4.3332 12.1432C2.72982 13.2145 1.48013 14.7373 0.742179 16.5188C0.00422452 18.3004 -0.188858 20.2608 0.187348 22.1521C0.563554 24.0434 1.49215 25.7807 2.85571 27.1443C4.21928 28.5079 5.95656 29.4365 7.84787 29.8127C9.73919 30.1889 11.6996 29.9958 13.4812 29.2578C15.2627 28.5199 16.7855 27.2702 17.8568 25.6668C18.9282 24.0634 19.5 22.1784 19.5 20.25V17.865L30 15V10.5H13.5ZM21.36 2.55L17.775 7.5H21.48L23.79 4.32L21.36 2.55ZM10.5 0V7.5H13.5V0H10.5Z" fill="white"/>
</svg>
