<svg width="32" height="31" viewBox="0 0 32 31" fill="none" xmlns="http://www.w3.org/2000/svg">
<path d="M5.66463 0.706757L4.08063 2.28851L6.4375 4.64426L8.01925 3.06251L5.6635 0.706757H5.66463ZM26.3365 0.706757L23.9796 3.06251L25.5625 4.64426L27.9182 2.28963L26.3354 0.706757H26.3365ZM16 1.40876C15.6287 1.41326 15.253 1.43463 14.875 1.48076C14.8638 1.48076 14.8525 1.47851 14.8413 1.48076C10.2782 2.00388 6.64675 5.69051 6.01562 10.2333C5.51162 13.8895 7.01912 17.2049 9.53125 19.3401C10.5588 20.2171 11.2539 21.4206 11.5 22.7489V29.4989H14.065C14.4565 30.1705 15.1709 30.6239 16 30.6239C16.8291 30.6239 17.5435 30.1705 17.935 29.4989H20.5V24.9989H20.6057V23.6624C20.6057 22.0131 21.463 20.3504 22.8557 19.0578C24.7188 17.1925 26.125 14.5431 26.125 11.5C26.125 5.94251 21.5508 1.35701 16 1.40876ZM16 3.65876C20.3481 3.59801 23.875 7.15751 23.875 11.5C23.875 13.8558 22.7838 15.9303 21.2729 17.44L21.3089 17.476C19.8074 18.8605 18.8365 20.7259 18.5639 22.75H13.6431C13.3956 20.8218 12.5688 18.9554 11.0061 17.6166C9.01825 15.9291 7.83363 13.3866 8.22963 10.5156C8.72125 6.97188 11.5968 4.12226 15.1203 3.73188C15.4112 3.69132 15.7041 3.66729 15.9978 3.65988L16 3.65876ZM0.25 11.5V13.75H3.625V11.5H0.25ZM28.375 11.5V13.75H31.75V11.5H28.375ZM6.4375 20.6058L4.08175 22.9604L5.66463 24.5433L8.01812 22.1875L6.4375 20.6058ZM25.5625 20.6058L23.9807 22.1875L26.3354 24.5433L27.9182 22.9604L25.5625 20.6058ZM13.75 25H18.25V27.25H13.75V25Z" fill="white"/>
</svg>
