<svg width="28" height="32" viewBox="0 0 28 32" fill="none" xmlns="http://www.w3.org/2000/svg">
<path d="M4.99775 4.75C4.99775 3.55653 5.47185 2.41193 6.31577 1.56802C7.15968 0.724106 8.30427 0.25 9.49775 0.25H18.4977C19.6912 0.25 20.8358 0.724106 21.6797 1.56802C22.5236 2.41193 22.9977 3.55653 22.9977 4.75H24.1227C25.0179 4.75 25.8763 5.10558 26.5092 5.73851C27.1422 6.37145 27.4977 7.22989 27.4977 8.125V10.375C27.4977 13.1897 25.4277 15.5208 22.73 15.9348C22.2887 17.694 21.3267 19.2791 19.9698 20.4826C18.6129 21.6861 16.9243 22.4521 15.125 22.6803V25H18.5C19.6935 25 20.8381 25.4741 21.682 26.318C22.5259 27.1619 23 28.3065 23 29.5V30.634C23 30.9324 22.8815 31.2185 22.6705 31.4295C22.4595 31.6405 22.1734 31.759 21.875 31.759H6.125C5.82663 31.759 5.54048 31.6405 5.3295 31.4295C5.11852 31.2185 5 30.9324 5 30.634V29.5C5 28.3065 5.4741 27.1619 6.31802 26.318C7.16193 25.4741 8.30652 25 9.5 25H12.875V22.6825C11.0743 22.4549 9.3843 21.6886 8.02647 20.4842C6.66864 19.2797 5.70629 17.6932 5.2655 15.9325C3.93756 15.728 2.7265 15.0554 1.85095 14.0363C0.9754 13.0172 0.493055 11.7186 0.490997 10.375V8.125C0.490997 7.22989 0.846577 6.37145 1.47951 5.73851C2.11245 5.10558 2.97089 4.75 3.866 4.75H5H4.99775ZM20.7477 4.75C20.7477 4.15326 20.5107 3.58097 20.0887 3.15901C19.6668 2.73705 19.0945 2.5 18.4977 2.5H9.49775C8.90101 2.5 8.32871 2.73705 7.90676 3.15901C7.4848 3.58097 7.24775 4.15326 7.24775 4.75V13.75C7.22686 15.5402 7.91799 17.2654 9.16909 18.546C10.4202 19.8267 12.1288 20.5579 13.919 20.5788C15.7092 20.5996 17.4344 19.9085 18.715 18.6574C19.9957 17.4063 20.7269 15.6977 20.7477 13.9075V4.75ZM22.9977 13.5565C23.6557 13.3239 24.2253 12.893 24.6283 12.3233C25.0312 11.7535 25.2476 11.0728 25.2477 10.375V8.125C25.2477 7.82663 25.1292 7.54048 24.9182 7.3295C24.7073 7.11853 24.4211 7 24.1227 7H22.9977V13.5565ZM4.99775 7H3.866C3.56763 7 3.28148 7.11853 3.0705 7.3295C2.85952 7.54048 2.741 7.82663 2.741 8.125V10.375C2.741 11.8442 3.686 13.0953 4.99775 13.5588V7ZM7.24775 29.5V29.509H20.7477V29.5C20.7477 28.9033 20.5107 28.331 20.0887 27.909C19.6668 27.4871 19.0945 27.25 18.4977 27.25H9.49775C8.90101 27.25 8.32871 27.4871 7.90676 27.909C7.4848 28.331 7.24775 28.9033 7.24775 29.5Z" fill="white"/>
</svg>
