<svg width="32" height="31" viewBox="0 0 32 31" fill="none" xmlns="http://www.w3.org/2000/svg">
<path d="M6.09999 4.4C6.10115 3.41934 6.56524 2.47919 7.39027 1.7861C8.2153 1.09302 9.3338 0.703704 10.5 0.703705H21.5C22.6662 0.703704 23.7847 1.09302 24.6097 1.7861C25.4347 2.47919 25.8988 3.41934 25.9 4.4H28.0912C28.9664 4.4 29.8058 4.69237 30.4246 5.21278C31.0435 5.7332 31.3912 6.43903 31.3912 7.175V9.95926C31.3913 11.3027 30.8111 12.6005 29.7585 13.6112C28.7059 14.6218 27.2527 15.2766 25.669 15.4538C25.2207 17.1485 24.1542 18.6831 22.6183 19.8433C21.0824 21.0035 19.1539 21.7313 17.1022 21.9251V24.6908H21.5088C22.6757 24.6908 23.7949 25.0806 24.6201 25.7745C25.4452 26.4684 25.9088 27.4095 25.9088 28.3908V29.3158C25.9088 29.5611 25.7929 29.7964 25.5866 29.9699C25.3803 30.1434 25.1005 30.2408 24.8088 30.2408H7.20879C6.91705 30.2408 6.63726 30.1434 6.43097 29.9699C6.22468 29.7964 6.10879 29.5611 6.10879 29.3158V28.3908C6.10879 27.4095 6.57236 26.4684 7.39752 25.7745C8.22268 25.0806 9.34184 24.6908 10.5088 24.6908H14.9022V21.9251C12.8491 21.7316 10.9193 21.0033 9.38281 19.8419C7.84632 18.6806 6.78005 17.1443 6.33319 15.4482C4.74631 15.2709 3.28979 14.6155 2.23386 13.6037C1.17793 12.592 0.594277 11.2925 0.591187 9.94631V7.175C0.591187 6.43903 0.938864 5.7332 1.55773 5.21278C2.1766 4.69237 3.01597 4.4 3.89119 4.4H6.10219H6.09999ZM25.9 13.5335C26.8419 13.3285 27.6763 12.8663 28.272 12.2193C28.8677 11.5724 29.191 10.7774 29.1912 9.95926V7.175C29.1912 6.92968 29.0753 6.6944 28.869 6.52093C28.6627 6.34746 28.3829 6.25 28.0912 6.25H25.9022V13.5335H25.9ZM6.09999 6.25H3.89339C3.60165 6.25 3.32186 6.34746 3.11557 6.52093C2.90928 6.6944 2.79339 6.92968 2.79339 7.175V9.94631C2.79339 11.6668 4.20139 13.1154 6.10439 13.5279V6.25H6.09999Z" fill="#FFAC33"/>
</svg>
