<svg width="30" height="30" viewBox="0 0 30 30" fill="none" xmlns="http://www.w3.org/2000/svg">
<path d="M15 0C6.7155 0 0 6.7155 0 15C0 23.2845 6.7155 30 15 30C23.2845 30 30 23.2845 30 15C30 6.7155 23.2845 0 15 0ZM9.366 3.5595L13.878 6.2595V9.549L9.6915 12.591L6.6255 11.5305L5.745 6.2295C6.78474 5.13252 8.01071 4.22854 9.366 3.5595ZM2.4315 17.1585L5.922 13.668L8.982 14.7255L10.605 19.725L9.15 22.0875L4.2105 21.7965C3.31732 20.383 2.71271 18.8067 2.4315 17.1585ZM12.795 27.5595L11.019 23.346L12.4635 20.9955H17.5215L18.8895 23.367L17.3295 27.537C15.8313 27.8136 14.2958 27.8213 12.795 27.5595ZM25.338 22.464L20.802 22.179L19.395 19.743L21.0255 14.7255L24.045 13.6815L27.513 17.4615C27.1592 19.267 26.4171 20.9739 25.338 22.464ZM24.258 6.234L23.3745 11.5335L20.3145 12.591L16.128 9.549V6.258L20.631 3.558C21.9889 4.22829 23.2169 5.13435 24.258 6.234Z" fill="white"/>
</svg>
